<svg viewBox="0 0 190 50" width="190" height="50" xmlns="http://www.w3.org/2000/svg">
  <rect x="10" y="0" width="10" height="10" fill="black" />
  <rect x="0" y="10" width="10" height="10" fill="black" />
  <rect x="20" y="10" width="10" height="10" fill="black" />
  <rect x="10" y="20" width="10" height="10" fill="black" />
  <rect x="10" y="30" width="10" height="10" fill="black" />
  <rect x="10" y="40" width="10" height="10" fill="black" />
  <rect x="20" y="40" width="10" height="10" fill="black" />
  <rect x="40" y="10" width="10" height="10" fill="black" />
  <rect x="40" y="30" width="10" height="10" fill="black" />
  <rect x="40" y="40" width="10" height="10" fill="black" />
  <rect x="70" y="20" width="10" height="10" fill="black" />
  <rect x="80" y="20" width="10" height="10" fill="black" />
  <rect x="60" y="30" width="10" height="10" fill="black" />
  <rect x="70" y="40" width="10" height="10" fill="black" />
  <rect x="80" y="40" width="10" height="10" fill="black" />
  <rect x="100" y="0" width="10" height="10" fill="black" />
  <rect x="100" y="10" width="10" height="10" fill="black" />
  <rect x="100" y="20" width="10" height="10" fill="black" />
  <rect x="120" y="20" width="10" height="10" fill="black" />
  <rect x="100" y="30" width="10" height="10" fill="black" />
  <rect x="110" y="30" width="10" height="10" fill="black" />
  <rect x="100" y="40" width="10" height="10" fill="black" />
  <rect x="130" y="40" width="10" height="10" fill="black" />
  <rect x="150" y="0" width="10" height="10" fill="black" />
  <rect x="150" y="10" width="10" height="10" fill="black" />
  <rect x="150" y="20" width="10" height="10" fill="black" />
  <rect x="170" y="20" width="10" height="10" fill="black" />
  <rect x="150" y="30" width="10" height="10" fill="black" />
  <rect x="160" y="30" width="10" height="10" fill="black" />
  <rect x="150" y="40" width="10" height="10" fill="black" />
  <rect x="180" y="40" width="10" height="10" fill="black" />
</svg>